# Blender v3.0.0 OBJ File: 'Hexagon .blend'
# www.blender.org
mtllib Hexagon + logosv20 .mtl
o Curve_Curve.006
v 2.275584 4.302239 -0.274539
v -0.120205 4.302239 -0.274539
v -1.317789 2.228190 -0.274539
v -0.119584 0.154142 -0.274539
v 2.275584 0.154142 -0.274539
v 3.473168 2.228190 -0.274539
v 1.987841 0.607724 -0.274539
v 0.150136 0.607724 -0.274539
v -0.768405 2.198987 -0.274539
v 0.150136 3.790251 -0.274539
v 1.987841 3.790251 -0.274539
v 2.906382 2.198987 -0.274539
v 2.275584 4.302239 -0.602575
v -0.120205 4.302239 -0.602575
v -1.317789 2.228190 -0.602576
v -0.119584 0.154142 -0.602576
v 2.275584 0.154142 -0.602576
v 3.473168 2.228190 -0.602576
v 1.987841 0.607724 -0.602576
v 0.150136 0.607724 -0.602576
v -0.768405 2.198987 -0.602576
v 0.150136 3.790251 -0.602575
v 1.987841 3.790251 -0.602575
v 2.906382 2.198987 -0.602576
v 2.275584 4.302239 -0.679817
v -0.120205 4.302239 -0.679817
v -1.317789 2.228190 -0.679817
v -0.119584 0.154142 -0.679817
v 2.275584 0.154142 -0.679817
v 3.473168 2.228190 -0.679817
v 1.987841 0.607724 -0.679817
v 0.150136 0.607724 -0.679817
v -0.768405 2.198987 -0.679817
v 0.150136 3.790251 -0.679817
v 1.987841 3.790251 -0.679817
v 2.906382 2.198987 -0.679817
vt 0.181818 0.000000
vt 0.090909 0.000000
vt 0.818182 0.000000
vt 0.000000 0.000000
vt 0.909091 0.000000
vt 0.454545 0.000000
vt 0.727273 0.000000
vt 1.000000 0.000000
vt 0.272727 0.000000
vt 0.363636 0.000000
vt 0.636364 0.000000
vt 0.545455 0.000000
vt 0.818182 0.000000
vt 0.909091 0.000000
vt 0.909091 0.000000
vt 0.818182 0.000000
vt 0.545455 0.000000
vt 0.636364 0.000000
vt 0.636364 0.000000
vt 0.545455 0.000000
vt 0.454545 0.000000
vt 0.000000 0.000000
vt 0.000000 0.000000
vt 0.454545 0.000000
vt 0.727273 0.000000
vt 0.727273 0.000000
vt 1.000000 0.000000
vt 1.000000 0.000000
vt 0.090909 0.000000
vt 0.090909 0.000000
vt 0.181818 0.000000
vt 0.181818 0.000000
vt 0.272727 0.000000
vt 0.272727 0.000000
vt 0.363636 0.000000
vt 0.363636 0.000000
vn -0.0000 0.0000 -1.0000
vn 0.0000 1.0000 0.0000
vn 0.0000 -1.0000 0.0000
vn -0.8660 -0.5000 0.0000
vn -0.8661 -0.4999 0.0000
vn 0.8661 0.4999 0.0000
vn 0.8660 -0.5000 0.0000
vn -0.8661 0.4999 0.0000
vn 0.8659 0.5002 0.0000
vn -0.8660 0.5000 0.0000
vn 0.8661 -0.4999 0.0000
vn 0.0000 -0.0000 1.0000
usemtl SVGMat.002
s off
f 3/1/1 2/2/1 10/3/1
f 10/3/1 2/2/1 1/4/1
f 10/3/1 1/4/1 11/5/1
f 11/5/1 1/4/1 6/6/1
f 3/1/1 10/3/1 9/7/1
f 12/8/1 11/5/1 6/6/1
f 4/9/1 3/1/1 9/7/1
f 12/8/1 6/6/1 5/10/1
f 4/9/1 9/7/1 8/11/1
f 7/12/1 12/8/1 5/10/1
f 4/9/1 8/11/1 7/12/1
f 4/9/1 7/12/1 5/10/1
f 22/13/2 23/14/2 35/15/2 34/16/2
f 19/17/3 20/18/3 32/19/3 31/20/3
f 18/21/4 13/22/4 25/23/4 30/24/4
f 20/18/5 21/25/5 33/26/5 32/19/5
f 23/14/6 24/27/6 36/28/6 35/15/6
f 13/22/3 14/29/3 26/30/3 25/23/3
f 14/29/7 15/31/7 27/32/7 26/30/7
f 21/25/8 22/13/8 34/16/8 33/26/8
f 15/31/9 16/33/9 28/34/9 27/32/9
f 16/33/2 17/35/2 29/36/2 28/34/2
f 17/35/10 18/21/10 30/24/10 29/36/10
f 24/27/11 19/17/11 31/20/11 36/28/11
f 5/10/10 6/6/10 18/21/10 17/35/10
f 4/9/2 5/10/2 17/35/2 16/33/2
f 3/1/9 4/9/9 16/33/9 15/31/9
f 9/7/8 10/3/8 22/13/8 21/25/8
f 2/2/7 3/1/7 15/31/7 14/29/7
f 1/4/3 2/2/3 14/29/3 13/22/3
f 11/5/6 12/8/6 24/27/6 23/14/6
f 8/11/5 9/7/5 21/25/5 20/18/5
f 6/6/4 1/4/4 13/22/4 18/21/4
f 7/12/3 8/11/3 20/18/3 19/17/3
f 10/3/2 11/5/2 23/14/2 22/13/2
f 12/8/11 7/12/11 19/17/11 24/27/11
f 27/32/12 34/16/12 26/30/12
f 34/16/12 25/23/12 26/30/12
f 34/16/12 35/15/12 25/23/12
f 35/15/12 30/24/12 25/23/12
f 27/32/12 33/26/12 34/16/12
f 36/28/12 30/24/12 35/15/12
f 28/34/12 33/26/12 27/32/12
f 36/28/12 29/36/12 30/24/12
f 28/34/12 32/19/12 33/26/12
f 31/20/12 29/36/12 36/28/12
f 28/34/12 31/20/12 32/19/12
f 28/34/12 29/36/12 31/20/12
o Curve.001
v 2.398368 2.194530 -0.650395
v 2.442356 2.123066 -0.650395
v 2.370602 1.999377 -0.650395
v 2.051967 1.999377 -0.650395
v 2.051967 2.388584 -0.650395
v 2.102278 2.466645 -0.650395
v 2.415964 2.466645 -0.650395
v 2.486343 2.345705 -0.650395
v 2.366753 2.392707 -0.650395
v 2.133069 2.392707 -0.650395
v 2.133069 2.077713 -0.650395
v 2.323315 2.077713 -0.650395
v 2.350257 2.121691 -0.650395
v 2.306270 2.195904 -0.650395
v 2.218295 2.195904 -0.650395
v 2.263657 2.272866 -0.650395
v 2.350257 2.272866 -0.650395
v 2.394245 2.347079 -0.650395
v -0.330228 1.996354 -0.650395
v -0.058055 1.996354 -0.650395
v -0.104792 2.076064 -0.650395
v -0.280742 2.076064 -0.650395
v -0.374215 2.229988 -0.650395
v -0.283491 2.386660 -0.650395
v -0.103417 2.386660 -0.650395
v -0.058055 2.466645 -0.650395
v -0.327203 2.466645 -0.650395
v -0.466314 2.231362 -0.650395
v 0.398589 1.996354 -0.650395
v 0.127242 1.996354 -0.650395
v -0.008569 2.231362 -0.650395
v 0.127242 2.466370 -0.650395
v 0.398589 2.466370 -0.650395
v 0.534401 2.231362 -0.650395
v 0.352677 2.386660 -0.650395
v 0.173429 2.386660 -0.650395
v 0.083529 2.231362 -0.650395
v 0.173154 2.076064 -0.650395
v 0.352402 2.076064 -0.650395
v 0.442027 2.231362 -0.650395
v 0.677360 2.465546 -0.650395
v 0.633372 2.395180 -0.650395
v 0.633372 1.960896 -0.650395
v 0.713099 2.029612 -0.650395
v 0.713099 2.385560 -0.650395
v 0.900046 2.385560 -0.650395
v 0.946783 2.466645 -0.650395
v 1.103488 2.465546 -0.650395
v 1.059501 2.395180 -0.650395
v 1.059501 1.960896 -0.650395
v 1.139228 2.029612 -0.650395
v 1.139228 2.385560 -0.650395
v 1.326175 2.385560 -0.650395
v 1.372911 2.466645 -0.650395
v 1.513121 2.461148 -0.650395
v 1.713814 2.128563 -0.650395
v 1.910383 2.461148 -0.650395
v 1.961243 2.381437 -0.650395
v 1.713264 1.960896 -0.650395
v 1.463635 2.378689 -0.650395
v 0.147864 2.028734 -0.513482
v 2.398368 2.194530 -0.205866
v 2.442356 2.123066 -0.205866
v 2.370602 1.999377 -0.205866
v 2.051967 1.999377 -0.205866
v 2.051967 2.388584 -0.205866
v 2.102278 2.466645 -0.205866
v 2.415964 2.466645 -0.205866
v 2.486343 2.345705 -0.205866
v 2.366753 2.392707 -0.205866
v 2.133069 2.392707 -0.205866
v 2.133069 2.077713 -0.205866
v 2.323315 2.077713 -0.205866
v 2.350257 2.121691 -0.205866
v 2.306270 2.195904 -0.205866
v 2.218295 2.195904 -0.205866
v 2.263657 2.272866 -0.205866
v 2.350257 2.272866 -0.205866
v 2.394245 2.347079 -0.205866
v -0.330228 1.996354 -0.205866
v -0.058055 1.996354 -0.205866
v -0.104792 2.076064 -0.205866
v -0.280742 2.076064 -0.205866
v -0.374215 2.229988 -0.205866
v -0.283491 2.386660 -0.205866
v -0.103417 2.386660 -0.205866
v -0.058055 2.466645 -0.205866
v -0.327203 2.466645 -0.205866
v -0.466314 2.231362 -0.205866
v 0.398589 1.996354 -0.205866
v 0.127242 1.996354 -0.205866
v -0.008569 2.231362 -0.205866
v 0.127242 2.466370 -0.205866
v 0.398589 2.466370 -0.205866
v 0.534401 2.231362 -0.205866
v 0.352677 2.386660 -0.205866
v 0.173429 2.386660 -0.205866
v 0.083529 2.231362 -0.205866
v 0.173154 2.076064 -0.205866
v 0.352402 2.076064 -0.205866
v 0.442027 2.231362 -0.205866
v 0.677360 2.465546 -0.205866
v 0.633372 2.395180 -0.205866
v 0.633372 1.960896 -0.205866
v 0.713099 2.029612 -0.205866
v 0.713099 2.385560 -0.205866
v 0.900046 2.385560 -0.205866
v 0.946783 2.466645 -0.205866
v 1.103488 2.465546 -0.205866
v 1.059501 2.395180 -0.205866
v 1.059501 1.960896 -0.205866
v 1.139228 2.029612 -0.205866
v 1.139228 2.385560 -0.205866
v 1.326175 2.385560 -0.205866
v 1.372911 2.466645 -0.205866
v 1.513121 2.461148 -0.205866
v 1.713814 2.128563 -0.205866
v 1.910383 2.461148 -0.205866
v 1.961243 2.381437 -0.205866
v 1.713264 1.960896 -0.205866
v 1.463635 2.378689 -0.205866
v 0.147864 2.028734 -0.068953
vt 0.457627 0.000000
vt 0.305085 0.000000
vt 0.355932 0.000000
vt 0.322034 0.000000
vt 0.338983 0.000000
vt 0.372881 0.000000
vt 0.389830 0.000000
vt 0.440678 0.000000
vt 0.406780 0.000000
vt 0.423729 0.000000
vt 0.508475 0.000000
vt 0.491525 0.000000
vt 0.627119 0.000000
vt 0.474576 0.000000
vt 0.644068 0.000000
vt 0.559322 0.000000
vt 0.610169 0.000000
vt 0.661017 0.000000
vt 0.525424 0.000000
vt 0.593220 0.000000
vt 0.576271 0.000000
vt 0.542373 0.000000
vt 0.694915 0.000000
vt 0.711864 0.000000
vt 0.728814 0.000000
vt 0.745763 0.000000
vt 0.762712 0.000000
vt 0.779661 0.000000
vt 0.677966 0.000000
vt 0.813559 0.000000
vt 0.830508 0.000000
vt 0.847458 0.000000
vt 0.864407 0.000000
vt 0.881356 0.000000
vt 0.898305 0.000000
vt 0.796610 0.000000
vt 1.000000 0.000000
vt 0.983051 0.000000
vt 0.932203 0.000000
vt 0.966102 0.000000
vt 0.915254 0.000000
vt 0.949153 0.000000
vt 0.067797 0.000000
vt 0.050847 0.000000
vt 0.169492 0.000000
vt 0.033898 0.000000
vt 0.186441 0.000000
vt 0.016949 0.000000
vt 0.152542 0.000000
vt 0.203390 0.000000
vt 0.220339 0.000000
vt 0.000000 0.000000
vt 0.118644 0.000000
vt 0.254237 0.000000
vt 0.237288 0.000000
vt 0.271186 0.000000
vt 0.288136 0.000000
vt 0.101695 0.000000
vt 0.135593 0.000000
vt 0.084746 0.000000
vt 0.457627 0.000000
vt 0.355932 0.000000
vt 0.305085 0.000000
vt 0.322034 0.000000
vt 0.338983 0.000000
vt 0.372881 0.000000
vt 0.389830 0.000000
vt 0.440678 0.000000
vt 0.406780 0.000000
vt 0.423729 0.000000
vt 0.508475 0.000000
vt 0.627119 0.000000
vt 0.491525 0.000000
vt 0.474576 0.000000
vt 0.644068 0.000000
vt 0.559322 0.000000
vt 0.610169 0.000000
vt 0.661017 0.000000
vt 0.525424 0.000000
vt 0.593220 0.000000
vt 0.576271 0.000000
vt 0.542373 0.000000
vt 0.694915 0.000000
vt 0.728814 0.000000
vt 0.711864 0.000000
vt 0.745763 0.000000
vt 0.762712 0.000000
vt 0.779661 0.000000
vt 0.677966 0.000000
vt 0.813559 0.000000
vt 0.847458 0.000000
vt 0.830508 0.000000
vt 0.864407 0.000000
vt 0.881356 0.000000
vt 0.898305 0.000000
vt 0.796610 0.000000
vt 1.000000 0.000000
vt 0.932203 0.000000
vt 0.983051 0.000000
vt 0.966102 0.000000
vt 0.915254 0.000000
vt 0.949153 0.000000
vt 0.067797 0.000000
vt 0.169492 0.000000
vt 0.050847 0.000000
vt 0.033898 0.000000
vt 0.186441 0.000000
vt 0.016949 0.000000
vt 0.152542 0.000000
vt 0.203390 0.000000
vt 0.220339 0.000000
vt 0.000000 0.000000
vt 0.118644 0.000000
vt 0.254237 0.000000
vt 0.237288 0.000000
vt 0.271186 0.000000
vt 0.288136 0.000000
vt 0.101695 0.000000
vt 0.135593 0.000000
vt 0.084746 0.000000
vt 0.000000 0.000000
vt 0.000000 0.000000
vt 0.000000 0.000000
vt 0.000000 0.000000
vn 0.0000 0.0000 1.0000
vn 0.0000 0.0000 -1.0000
vn 0.0000 -1.0000 0.0000
vn 0.0000 1.0000 0.0000
vn -0.8627 -0.5058 0.0000
vn 0.8602 0.5099 0.0000
vn -0.8655 0.5010 0.0000
vn -0.8664 0.4994 0.0000
vn 0.8668 0.4987 0.0000
vn -0.8547 -0.5191 0.0000
vn 0.8479 -0.5301 0.0000
vn -0.8516 -0.5242 0.0000
vn 0.0041 -1.0000 0.0000
vn -0.8654 0.5011 0.0000
vn 0.8584 0.5129 0.0000
vn -0.8658 -0.5004 0.0000
vn 0.8608 -0.5089 0.0000
vn -0.8643 0.5030 0.0000
vn 0.8615 -0.5078 0.0000
vn -0.8614 0.5079 0.0000
vn 1.0000 -0.0000 0.0000
vn 0.8574 -0.5146 0.0000
vn -0.8698 0.4933 0.0000
vn -0.8562 -0.5167 0.0000
vn -0.6529 0.7575 0.0000
vn 0.8658 0.5004 0.0000
vn 0.8609 -0.5088 0.0000
vn 0.8602 -0.5099 0.0000
vn -0.8430 -0.5379 0.0000
vn -1.0000 0.0000 0.0000
vn -0.8643 -0.5030 0.0000
vn 0.8565 0.5161 0.0000
vn 0.8405 -0.5417 0.0000
vn -0.8658 0.5004 0.0000
vn 0.8654 0.5011 0.0000
vn -0.8661 -0.4998 0.0000
vn -0.8650 0.5018 0.0000
vn 0.8661 -0.4998 0.0000
vn -0.8820 0.4713 0.0000
vn 0.8658 -0.5004 0.0000
vn 0.8527 -0.5224 0.0000
usemtl SVGMat.001
s off
f 64/37/13 55/38/13 58/39/13
f 58/39/13 55/38/13 56/40/13
f 58/39/13 56/40/13 57/41/13
f 64/37/13 58/39/13 59/42/13
f 64/37/13 59/42/13 60/43/13
f 63/44/13 64/37/13 60/43/13
f 63/44/13 60/43/13 61/45/13
f 63/44/13 61/45/13 62/46/13
f 67/47/13 66/48/13 74/49/13
f 74/49/13 66/48/13 65/50/13
f 74/49/13 65/50/13 75/51/13
f 75/51/13 65/50/13 70/52/13
f 67/47/13 74/49/13 73/53/13
f 76/54/13 75/51/13 70/52/13
f 68/55/13 67/47/13 73/53/13
f 68/55/13 73/53/13 72/56/13
f 71/57/13 76/54/13 70/52/13
f 71/57/13 70/52/13 69/58/13
f 68/55/13 72/56/13 71/57/13
f 68/55/13 71/57/13 69/58/13
f 78/59/13 79/60/13 80/61/13
f 78/59/13 80/61/13 81/62/13
f 78/59/13 81/62/13 82/63/13
f 78/59/13 82/63/13 83/64/13
f 77/65/13 78/59/13 83/64/13
f 85/66/13 86/67/13 87/68/13
f 85/66/13 87/68/13 88/69/13
f 85/66/13 88/69/13 89/70/13
f 85/66/13 89/70/13 90/71/13
f 84/72/13 85/66/13 90/71/13
f 96/73/13 95/74/13 92/75/13
f 92/75/13 95/74/13 94/76/13
f 96/73/13 92/75/13 91/77/13
f 93/78/13 92/75/13 94/76/13
f 41/79/13 40/80/13 47/81/13
f 47/81/13 40/80/13 39/82/13
f 47/81/13 39/82/13 48/83/13
f 48/83/13 39/82/13 38/84/13
f 41/79/13 47/81/13 46/85/13
f 49/86/13 48/83/13 38/84/13
f 50/87/13 49/86/13 38/84/13
f 50/87/13 38/84/13 37/88/13
f 50/87/13 37/88/13 44/89/13
f 52/90/13 51/91/13 50/87/13
f 52/90/13 50/87/13 53/92/13
f 53/92/13 50/87/13 44/89/13
f 54/93/13 53/92/13 44/89/13
f 54/93/13 44/89/13 43/94/13
f 45/95/13 54/93/13 43/94/13
f 42/96/13 41/79/13 46/85/13
f 42/96/13 46/85/13 45/95/13
f 42/96/13 45/95/13 43/94/13
f 125/97/14 119/98/14 116/99/14
f 119/98/14 117/100/14 116/99/14
f 119/98/14 118/101/14 117/100/14
f 125/97/14 120/102/14 119/98/14
f 125/97/14 121/103/14 120/102/14
f 124/104/14 121/103/14 125/97/14
f 124/104/14 122/105/14 121/103/14
f 124/104/14 123/106/14 122/105/14
f 128/107/14 135/108/14 127/109/14
f 135/108/14 126/110/14 127/109/14
f 135/108/14 136/111/14 126/110/14
f 136/111/14 131/112/14 126/110/14
f 128/107/14 134/113/14 135/108/14
f 137/114/14 131/112/14 136/111/14
f 129/115/14 134/113/14 128/107/14
f 129/115/14 133/116/14 134/113/14
f 132/117/14 131/112/14 137/114/14
f 132/117/14 130/118/14 131/112/14
f 129/115/14 132/117/14 133/116/14
f 129/115/14 130/118/14 132/117/14
f 139/119/14 141/120/14 140/121/14
f 139/119/14 142/122/14 141/120/14
f 139/119/14 143/123/14 142/122/14
f 139/119/14 144/124/14 143/123/14
f 138/125/14 144/124/14 139/119/14
f 146/126/14 148/127/14 147/128/14
f 146/126/14 149/129/14 148/127/14
f 146/126/14 150/130/14 149/129/14
f 146/126/14 151/131/14 150/130/14
f 145/132/14 151/131/14 146/126/14
f 157/133/14 153/134/14 156/135/14
f 153/134/14 155/136/14 156/135/14
f 157/133/14 152/137/14 153/134/14
f 154/138/14 155/136/14 153/134/14
f 102/139/14 108/140/14 101/141/14
f 108/140/14 100/142/14 101/141/14
f 108/140/14 109/143/14 100/142/14
f 109/143/14 99/144/14 100/142/14
f 102/139/14 107/145/14 108/140/14
f 110/146/14 99/144/14 109/143/14
f 111/147/14 99/144/14 110/146/14
f 111/147/14 98/148/14 99/144/14
f 111/147/14 105/149/14 98/148/14
f 113/150/14 111/147/14 112/151/14
f 113/150/14 114/152/14 111/147/14
f 114/152/14 105/149/14 111/147/14
f 115/153/14 105/149/14 114/152/14
f 115/153/14 104/154/14 105/149/14
f 106/155/14 104/154/14 115/153/14
f 103/156/14 107/145/14 102/139/14
f 103/156/14 106/155/14 107/145/14
f 103/156/14 104/154/14 106/155/14
f 58/39/15 57/41/15 118/101/15 119/98/15
f 89/70/16 88/69/16 149/129/16 150/130/16
f 57/41/17 56/40/17 117/100/17 118/101/17
f 49/86/18 50/87/18 111/147/18 110/146/18
f 72/56/19 73/53/19 134/113/19 133/116/19
f 90/71/20 89/70/20 150/130/20 151/131/20
f 76/54/21 71/57/21 132/117/21 137/114/21
f 59/42/22 58/39/22 119/98/22 120/102/22
f 85/66/23 84/72/23 145/132/23 146/126/23
f 37/88/24 38/84/24 99/144/24 98/148/24
f 84/72/25 90/71/25 151/131/25 145/132/25
f 60/43/26 59/42/26 120/102/26 121/103/26
f 95/74/27 96/73/27 157/133/27 156/135/27
f 69/58/28 70/52/28 131/112/28 130/118/28
f 64/37/29 63/44/29 124/104/29 125/97/29
f 44/89/30 37/88/30 98/148/30 105/149/30
f 51/91/31 52/90/31 113/150/31 112/151/31
f 71/57/16 72/56/16 133/116/16 132/117/16
f 68/55/15 69/58/15 130/118/15 129/115/15
f 61/45/16 60/43/16 121/103/16 122/105/16
f 50/87/16 51/91/16 112/151/16 111/147/16
f 94/76/32 95/74/32 156/135/32 155/136/32
f 79/60/33 78/59/33 139/119/33 140/121/33
f 63/44/15 62/46/15 123/106/15 124/104/15
f 52/90/15 53/92/15 114/152/15 113/150/15
f 96/73/34 91/77/34 152/137/34 157/133/34
f 62/46/35 61/45/35 122/105/35 123/106/35
f 91/77/36 92/75/36 153/134/36 152/137/36
f 80/61/37 79/60/37 140/121/37 141/120/37
f 66/48/38 67/47/38 128/107/38 127/109/38
f 92/75/39 93/78/39 154/138/39 153/134/39
f 53/92/40 54/93/40 115/153/40 114/152/40
f 93/78/41 94/76/41 155/136/41 154/138/41
f 81/62/42 80/61/42 141/120/42 142/122/42
f 40/80/33 41/79/33 102/139/33 101/141/33
f 82/63/16 81/62/16 142/122/16 143/123/16
f 65/50/16 66/48/16 127/109/16 126/110/16
f 43/94/43 44/89/43 105/149/43 104/154/43
f 74/49/15 75/51/15 136/111/15 135/108/15
f 54/93/44 45/95/44 106/155/44 115/153/44
f 83/64/20 82/63/20 143/123/20 144/124/20
f 39/82/16 40/80/16 101/141/16 100/142/16
f 78/59/23 77/65/23 138/125/23 139/119/23
f 41/79/45 42/96/45 103/156/45 102/139/45
f 47/81/15 48/83/15 109/143/15 108/140/15
f 77/65/25 83/64/25 144/124/25 138/125/25
f 70/52/46 65/50/46 126/110/46 131/112/46
f 86/67/33 85/66/33 146/126/33 147/128/33
f 55/38/47 64/37/47 125/97/47 116/99/47
f 73/53/48 74/49/48 135/108/48 134/113/48
f 45/95/16 46/85/16 107/145/16 106/155/16
f 38/84/49 39/82/49 100/142/49 99/144/49
f 87/68/37 86/67/37 147/128/37 148/127/37
f 75/51/50 76/54/50 137/114/50 136/111/50
f 42/96/15 43/94/15 104/154/15 103/156/15
f 74/157/51 97/158/51 158/159/51 135/160/51
f 46/85/42 47/81/42 108/140/42 107/145/42
f 88/69/42 87/68/42 148/127/42 149/129/42
f 67/47/52 68/55/52 129/115/52 128/107/52
f 56/40/16 55/38/16 116/99/16 117/100/16
f 48/83/53 49/86/53 110/146/53 109/143/53
